<svg xmlns="http://www.w3.org/2000/svg" xml:space="preserve" width="256" height="256"><g style="stroke:none;stroke-width:0;stroke-dasharray:none;stroke-linecap:butt;stroke-linejoin:miter;stroke-miterlimit:10;fill:none;fill-rule:nonzero;opacity:1"><path d="M6.316 75.013c.027 2.411.901 4.213 2.337 5.261.184.134.385.246.587.355l-.004.012.118.057c.041.021.083.04.124.06l17.797 8.561.738-.428c-.423-.898-.671-1.965-.685-3.205l-.231-20.726-.209-18.781c-.039-3.497 1.713-7.447 4.406-10.581L9.962 25.318c-2.508 3.068-4.124 6.833-4.086 10.187l.209 18.781.231 20.727z" style="stroke:none;stroke-width:1;stroke-dasharray:none;stroke-linecap:butt;stroke-linejoin:miter;stroke-miterlimit:10;fill:#343a40;fill-rule:nonzero;opacity:1" transform="matrix(2.81 0 0 2.81 1.407 1.407)"/><path d="m62.715.538-.005.008c-1.846-.86-4.335-.735-7.07.595L15.923 20.457c-2.24 1.089-4.295 2.823-5.961 4.861.9 7.946 6.189 11.544 18.007 8.677 1.606-1.869 6.871-1.846 8.967-2.865l39.717-19.316c1.36-.662 2.659-1.021 3.85-1.115l.11-1.536L62.715.538z" style="stroke:none;stroke-width:1;stroke-dasharray:none;stroke-linecap:butt;stroke-linejoin:miter;stroke-miterlimit:10;fill:#3b4249;fill-rule:nonzero;opacity:1" transform="matrix(2.81 0 0 2.81 1.407 1.407)"/><path d="M73.938 9.789 34.119 28.713c-5.626 2.674-10.186 9.402-10.186 15.028V83.56c0 5.626 4.561 8.019 10.186 5.345l13.736-6.528 26.083-12.396c5.626-2.674 10.186-9.402 10.186-15.028V15.134c.001-5.626-4.56-8.019-10.186-5.345z" style="stroke:none;stroke-width:1;stroke-dasharray:none;stroke-linecap:butt;stroke-linejoin:miter;stroke-miterlimit:10;fill:#464e57;fill-rule:nonzero;opacity:1" transform="matrix(2.81 0 0 2.81 1.407 1.407)"/><path d="M39.338 63.133s1.485-.009 2.517 2.12c0 0 1.331 3.413 7.635-.955.006 1.2.017 2.353.024 3.173.004.41.338.581.751.385l9.749-4.633c.412-.196.748-.686.75-1.1.007-1.164.021-3.031.021-5.193 0-2.114-.724-3.15-1.537-3.467 5.047-2.96 10.349-7.396 10.349-16.101 0-2.474-.879-4.078-2.333-4.975.235-.683 1.011-3.357-.223-5.892 0 0-1.9.295-6.226 5.282-1.811.359-3.752 1.029-5.678 1.936a33.958 33.958 0 0 0-5.672 3.459c-4.331-.874-6.234.639-6.234.639-1.231 3.707-.455 5.643-.22 6.102-1.45 2.276-2.336 4.719-2.336 7.193 0 8.684 5.292 8.112 10.326 6.293-.648.874-1.235 2.153-1.439 3.715-1.293 1.194-4.574 3.755-6.595 1.251 0 0-1.199-1.606-3.474-.685 0 .001-2.212 1.023-.155 1.453z" style="stroke:none;stroke-width:1;stroke-dasharray:none;stroke-linecap:butt;stroke-linejoin:miter;stroke-miterlimit:10;fill:#fff;fill-rule:nonzero;opacity:1" transform="matrix(2.81 0 0 2.81 1.407 1.407)"/></g></svg>